<?xml version="1.0" standalone="no"?>
<!DOCTYPE svg PUBLIC "-//W3C//DTD SVG 20010904//EN"
 "http://www.w3.org/TR/2001/REC-SVG-20010904/DTD/svg10.dtd">
<svg version="1.0" xmlns="http://www.w3.org/2000/svg"
 width="512.000000pt" height="512.000000pt" viewBox="0 0 512.000000 512.000000"
 preserveAspectRatio="xMidYMid meet">
<metadata>
Created by potrace 1.16, written by Peter Selinger 2001-2019
</metadata>
<g transform="translate(0.000000,512.000000) scale(0.100000,-0.100000)"
fill="#000000" stroke="none">
<path d="M187 4932 c-147 -147 -188 -194 -185 -211 2 -18 40 15 213 189 175
175 206 210 185 210 -19 0 -69 -44 -213 -188z"/>
<path d="M287 4832 c-227 -227 -288 -294 -285 -311 2 -17 59 35 313 289 255
255 305 310 285 310 -20 0 -89 -64 -313 -288z"/>
<path d="M387 4732 c-307 -307 -388 -393 -385 -411 2 -17 79 55 413 389 335
335 405 410 385 410 -20 0 -109 -84 -413 -388z"/>
<path d="M487 4632 c-388 -388 -488 -493 -485 -511 2 -17 99 74 513 489 415
415 505 510 485 510 -20 0 -129 -104 -513 -488z"/>
<path d="M587 4532 c-468 -468 -588 -593 -585 -611 2 -17 118 94 613 589 495
495 605 610 585 610 -20 0 -149 -124 -613 -588z"/>
<path d="M687 4432 c-548 -548 -688 -693 -685 -711 2 -17 138 114 713 689 575
575 705 710 685 710 -20 0 -169 -144 -713 -688z"/>
<path d="M787 4332 c-629 -629 -788 -793 -785 -811 2 -17 158 133 813 789 655
655 805 810 785 810 -20 0 -189 -164 -813 -788z"/>
<path d="M887 4232 c-709 -709 -888 -893 -885 -911 2 -17 177 153 913 889 735
735 905 910 885 910 -20 0 -209 -184 -913 -888z"/>
<path d="M987 4132 c-789 -789 -988 -993 -985 -1011 2 -17 197 173 1013 989
815 815 1005 1010 985 1010 -20 0 -229 -204 -1013 -988z"/>
<path d="M2125 5069 c-28 -28 -70 -60 -95 -72 -56 -27 -110 -80 -137 -137 -16
-33 -266 -289 -957 -980 -742 -741 -936 -940 -936 -960 0 -20 180 155 936 910
l936 935 -7 -80 -6 -80 -930 -930 c-735 -736 -929 -935 -929 -955 0 -20 179
154 926 900 745 745 925 919 921 895 -3 -16 -8 -55 -12 -85 l-6 -56 -914 -914
c-725 -725 -915 -920 -915 -940 0 -20 175 150 911 885 l911 910 -6 -80 -7 -80
-904 -905 c-716 -716 -905 -910 -905 -930 0 -20 174 149 901 875 l900 900 -6
-80 -7 -80 -894 -895 c-707 -708 -894 -900 -894 -920 0 -20 172 147 891 865
l890 890 -6 -60 c-3 -33 -8 -71 -11 -85 -3 -17 -289 -310 -884 -905 -697 -697
-880 -885 -880 -905 0 -20 169 144 878 853 l878 878 -9 -83 -9 -83 -869 -870
c-687 -688 -869 -875 -869 -895 0 -20 167 142 865 840 476 476 865 858 865
850 0 -8 -5 -46 -10 -85 l-10 -70 -855 -855 c-677 -677 -855 -860 -855 -880 0
-20 164 139 850 825 468 467 850 844 850 837 0 -7 -5 -46 -11 -85 l-11 -72
-839 -840 c-663 -664 -839 -845 -839 -865 0 -20 161 136 834 809 l833 833 -14
-88 -15 -89 -819 -820 c-647 -648 -819 -825 -819 -845 0 -20 156 131 810 785
446 445 810 806 810 801 0 -5 -9 -47 -20 -95 l-21 -87 -789 -789 c-625 -625
-790 -795 -790 -815 0 -20 149 124 781 755 l780 780 -26 -70 c-15 -38 -35 -92
-46 -120 -16 -44 -105 -137 -754 -785 -581 -581 -735 -740 -735 -760 0 -20
136 111 715 690 523 523 712 705 701 679 -9 -20 -37 -83 -64 -140 l-50 -104
-651 -650 c-514 -514 -651 -655 -651 -675 0 -20 118 93 626 600 693 691 648
656 497 390 -52 -91 -74 -115 -589 -630 -419 -420 -534 -540 -534 -560 0 -20
92 67 491 465 l491 490 -79 -125 c-187 -294 -170 -274 -547 -650 -278 -278
-356 -360 -356 -380 0 -20 57 32 320 295 l321 320 -45 -95 c-25 -52 -48 -108
-51 -125 -5 -21 -77 -100 -249 -272 -200 -202 -237 -243 -216 -243 19 0 74 49
235 210 l210 210 6 -67 7 -68 -141 -143 c-120 -120 -138 -142 -117 -142 18 0
57 33 150 125 l126 126 31 -43 31 -43 -82 -82 c-71 -74 -78 -83 -56 -83 18 0
46 20 94 69 l69 69 43 -31 42 -32 -36 -37 c-36 -38 -36 -38 -11 -38 15 0 37
12 52 28 26 27 30 28 83 21 31 -4 64 -5 73 -2 11 4 8 -2 -8 -20 l-24 -27 24 0
c15 0 37 12 54 30 16 17 36 30 44 30 33 0 143 61 191 106 54 51 115 141 146
216 16 40 116 145 609 637 l590 588 69 -4 68 -5 -798 -799 c-646 -646 -794
-799 -774 -799 20 0 192 167 825 800 790 790 800 800 840 800 22 1 60 5 84 9
42 9 19 -16 -765 -800 -654 -654 -804 -809 -784 -809 20 0 196 171 845 820
451 451 825 820 831 820 23 0 153 59 210 95 45 28 -159 -181 -826 -849 -715
-716 -880 -886 -860 -886 20 0 232 207 1025 1000 549 549 1000 998 1002 996 2
-1 8 -29 14 -61 l11 -58 -939 -939 c-756 -756 -933 -938 -913 -938 20 0 216
191 942 917 504 504 919 915 920 913 2 -3 13 -25 25 -50 l21 -45 -866 -867
c-700 -701 -862 -868 -842 -868 20 0 203 177 875 850 l850 849 39 -36 38 -36
-813 -813 c-657 -657 -809 -814 -789 -814 20 0 193 168 830 805 l805 805 58
-10 c31 -6 63 -8 70 -4 6 3 -348 -354 -788 -795 -647 -648 -795 -801 -775
-801 20 0 193 168 830 805 443 443 810 805 817 805 21 0 121 47 175 84 125 82
293 253 363 366 19 31 40 78 46 105 12 47 32 69 311 350 230 232 298 306 298
325 0 20 -55 -30 -303 -278 -264 -264 -305 -301 -316 -288 -8 9 -25 16 -39 16
-26 0 -53 -25 -180 -168 -68 -75 -145 -132 -160 -117 -3 3 220 232 496 508
394 394 502 507 502 527 0 20 -99 -74 -524 -499 l-524 -524 -31 44 -32 43 556
556 c436 436 555 560 555 580 0 20 -106 -81 -559 -534 -527 -527 -561 -559
-569 -535 -5 13 -12 40 -16 59 l-6 35 575 575 c453 453 575 580 575 600 0 20
-109 -84 -579 -554 l-578 -578 -7 68 -7 68 586 586 c460 460 585 590 585 610
0 20 -111 -86 -585 -560 l-585 -585 0 75 0 75 585 585 c461 461 585 590 585
610 0 20 -111 -86 -590 -565 l-590 -590 0 75 0 75 590 590 c465 465 590 595
590 615 0 20 -111 -86 -590 -565 l-590 -590 0 75 0 75 590 590 c465 465 590
595 590 615 0 20 -111 -86 -590 -565 l-590 -590 0 75 0 75 590 590 c465 465
590 595 590 615 0 20 -111 -86 -590 -565 l-590 -590 0 75 0 75 590 590 c465
465 590 595 590 615 0 20 -111 -86 -590 -565 l-590 -590 0 75 0 75 590 590
c465 465 590 595 590 615 0 20 -111 -86 -590 -565 l-590 -590 0 75 0 75 590
590 c465 465 590 595 590 615 0 20 -111 -86 -590 -565 l-590 -590 0 75 0 75
542 542 c440 440 538 543 518 543 -20 0 -136 -111 -542 -517 l-518 -518 0 75
0 75 442 442 c360 360 438 443 418 443 -19 0 -117 -92 -449 -422 -233 -233
-425 -418 -427 -412 -3 6 -16 26 -30 45 l-24 33 377 378 c308 308 373 378 353
378 -19 0 -105 -81 -390 -365 l-366 -366 -44 23 c-25 13 -47 24 -50 26 -2 1
149 156 335 342 279 279 335 340 315 340 -20 0 -100 -75 -365 -340 l-340 -340
-48 0 c-50 0 -107 -19 -142 -47 -11 -10 146 150 350 355 303 304 365 372 345
372 -20 0 -207 -183 -897 -872 l-873 -873 0 75 0 75 797 797 c644 644 793 798
773 798 -20 0 -187 -162 -797 -772 l-773 -773 0 75 0 75 697 697 c564 564 693
698 673 698 -20 0 -167 -142 -697 -672 l-673 -673 0 75 0 75 597 597 c484 484
593 598 573 598 -20 0 -147 -122 -597 -572 l-573 -573 0 75 0 75 497 497 c404
404 493 498 473 498 -20 0 -127 -102 -497 -472 l-473 -473 0 75 0 75 397 397
c324 324 393 398 373 398 -19 0 -107 -82 -397 -372 l-373 -373 0 75 0 75 297
297 c244 244 293 298 273 298 -19 0 -87 -62 -297 -272 l-273 -273 0 75 0 75
197 197 c164 164 194 198 173 198 -19 0 -66 -42 -196 -171 l-171 -171 -13 46
c-7 26 -17 49 -22 53 -6 3 43 59 108 124 102 102 115 119 94 119 -19 0 -52
-26 -124 -99 l-98 -99 -43 32 -43 31 66 68 c60 61 64 67 41 67 -17 0 -43 -18
-83 -59 -52 -53 -62 -58 -83 -50 -13 5 -43 9 -66 9 l-41 0 49 50 c46 47 48 50
24 50 -17 0 -41 -17 -74 -51z m1322 -737 c-27 -30 -47 -89 -47 -139 l0 -48
-485 -485 -485 -485 0 75 0 75 512 512 c282 282 515 513 517 513 2 0 -3 -8
-12 -18z m-529 -869 l-483 -483 -3 72 -3 72 483 483 483 483 3 -72 3 -72 -483
-483z m0 -200 l-483 -483 -3 72 -3 72 483 483 483 483 3 -72 3 -72 -483 -483z
m13 -187 c-259 -259 -472 -468 -475 -465 -3 3 -8 31 -12 63 l-7 58 479 479
479 479 3 -72 3 -72 -470 -470z m27 -173 c-244 -244 -445 -443 -448 -443 -4 0
-14 23 -24 51 l-19 51 464 464 464 464 3 -72 3 -72 -443 -443z m40 -160 c-222
-222 -405 -403 -408 -403 -3 0 -18 19 -34 41 l-29 41 434 434 434 434 3 -72 3
-72 -403 -403z m53 -147 l-350 -349 -38 28 c-21 16 -40 30 -43 32 -2 2 171
179 385 394 l390 389 3 -72 3 -72 -350 -350z m77 -123 c-296 -296 -270 -277
-357 -251 l-34 10 329 329 329 329 3 -72 3 -72 -273 -273z m239 124 c-36 -99
-84 -171 -162 -245 -77 -73 -155 -118 -242 -138 l-57 -13 239 240 c132 131
241 235 243 230 1 -4 -8 -38 -21 -74z m-1449 -334 c-51 -51 -93 -91 -95 -89
-2 2 6 43 18 92 20 87 22 91 87 157 l67 68 7 -68 7 -68 -91 -92z m-21 -220
c-78 -78 -143 -141 -144 -139 -2 2 6 43 18 92 l22 89 111 113 111 112 12 -62
11 -63 -141 -142z m168 40 l17 -56 -198 -198 c-109 -109 -199 -197 -201 -196
-1 2 9 45 22 97 l24 94 158 158 c87 87 159 158 160 158 1 0 9 -25 18 -57z
m-185 -458 c-145 -145 -265 -263 -267 -262 -1 2 9 45 22 97 l24 94 218 218
218 218 25 -50 24 -50 -264 -265z m331 170 c18 -20 13 -26 -331 -370 l-349
-349 24 89 c14 50 25 94 25 100 0 5 131 141 292 302 285 285 292 292 306 270
9 -12 23 -31 33 -42z m119 -115 c0 -3 -196 -201 -435 -440 -239 -239 -435
-431 -435 -427 0 5 12 50 26 100 l26 92 371 372 370 371 38 -31 c21 -18 39
-34 39 -37z m95 -42 c17 -6 33 -14 37 -17 4 -4 -240 -254 -544 -556 -303 -303
-548 -543 -546 -535 3 8 18 56 32 105 l27 90 467 468 c325 325 472 465 482
461 8 -3 29 -11 45 -16z"/>
<path d="M3785 1330 c-1071 -1071 -1325 -1330 -1305 -1330 37 0 2643 2607
2638 2639 -2 17 -260 -236 -1333 -1309z"/>
<path d="M3885 1230 c-991 -991 -1225 -1230 -1205 -1230 37 0 2443 2407 2438
2439 -2 17 -240 -216 -1233 -1209z"/>
<path d="M3985 1130 c-911 -911 -1125 -1130 -1105 -1130 37 0 2243 2207 2238
2239 -2 17 -221 -196 -1133 -1109z"/>
<path d="M4085 1030 c-831 -831 -1025 -1030 -1005 -1030 37 0 2043 2007 2038
2039 -2 17 -201 -177 -1033 -1009z"/>
<path d="M4185 930 c-751 -751 -925 -930 -905 -930 37 0 1843 1807 1838 1839
-2 17 -181 -157 -933 -909z"/>
<path d="M4285 830 c-671 -671 -825 -830 -805 -830 37 0 1643 1607 1638 1639
-2 17 -162 -137 -833 -809z"/>
<path d="M4385 730 c-591 -591 -725 -730 -705 -730 37 0 1443 1407 1438 1439
-2 17 -142 -118 -733 -709z"/>
<path d="M4485 630 c-511 -511 -625 -630 -605 -630 37 0 1243 1207 1238 1239
-2 17 -122 -98 -633 -609z"/>
<path d="M4585 530 c-431 -431 -525 -530 -505 -530 37 0 1043 1007 1038 1039
-2 17 -103 -78 -533 -509z"/>
<path d="M4685 430 c-351 -351 -425 -430 -405 -430 37 0 843 807 838 839 -2
17 -83 -59 -433 -409z"/>
<path d="M4785 330 c-271 -271 -325 -330 -305 -330 37 0 643 607 638 639 -2
17 -63 -39 -333 -309z"/>
<path d="M4885 230 c-191 -191 -226 -230 -205 -230 37 0 443 407 438 439 -2
18 -44 -19 -233 -209z"/>
</g>
</svg>
