<svg version="1.1" id="Layer_1" xmlns="http://www.w3.org/2000/svg" xmlns:xlink="http://www.w3.org/1999/xlink" x="0px" y="0px"
	 width="100%" viewBox="0 0 420 420" enable-background="new 0 0 420 420" xml:space="preserve">
<path fill="#FFFFFF" opacity="1.000000" stroke="none" 
	d="
M280.000000,421.000000 
	C186.666672,421.000000 93.833359,421.000000 1.000025,421.000000 
	C1.000017,281.000031 1.000017,141.000061 1.000008,1.000062 
	C140.999954,1.000042 280.999908,1.000042 420.999908,1.000021 
	C420.999939,140.999939 420.999939,280.999878 420.999969,420.999908 
	C374.166656,421.000000 327.333344,421.000000 280.000000,421.000000 
M222.177109,306.181458 
	C222.177109,306.181458 222.166916,306.201508 221.472427,305.921295 
	C220.349258,305.972137 219.226578,306.045197 218.102829,306.069794 
	C214.011627,306.159241 209.532532,307.338257 205.913467,306.069855 
	C199.403107,303.788147 193.449722,299.948700 187.173767,296.948029 
	C185.226013,296.016754 182.987503,295.693604 180.233109,294.734344 
	C177.639862,288.689056 170.466125,286.080566 168.691681,279.377411 
	C168.542206,278.812744 167.515839,278.480225 167.056839,277.226959 
	C164.917099,270.166626 159.904419,265.086945 154.819717,259.240265 
	C152.664566,256.792847 150.509415,254.345459 148.418884,251.314606 
	C148.533905,245.348907 145.484451,248.298874 142.435699,249.323593 
	C142.002045,249.362106 141.568390,249.400620 140.373947,249.166275 
	C137.552872,252.433151 136.941422,263.408813 138.794891,268.219757 
	C138.506912,268.690491 137.854431,269.400543 137.983658,269.597382 
	C142.549103,276.551849 147.556366,283.251068 151.619186,290.481995 
	C153.067780,293.060150 154.226105,292.194427 156.115112,292.668182 
	C156.778427,293.733307 157.441742,294.798462 158.087173,296.687073 
	C158.542297,301.619873 162.580475,306.162354 167.891830,307.028961 
	C169.614853,308.508698 171.784073,309.696320 172.979172,311.521698 
	C176.930878,317.557465 182.684326,321.112457 189.167389,324.807556 
	C189.587433,325.823608 189.742371,327.435577 190.470352,327.759430 
	C195.346634,329.928741 200.207245,332.929657 205.333481,333.567810 
	C214.766693,334.742065 224.517532,334.970612 232.748825,328.683289 
	C234.187531,327.584320 234.859314,325.481293 236.292038,323.203033 
	C238.516708,321.977417 241.005646,321.065460 242.910690,319.460510 
	C246.803787,316.180603 249.984848,311.924713 254.176956,309.158661 
	C262.098755,303.931702 265.862305,295.432281 271.633667,288.547516 
	C274.681915,284.911194 276.679840,280.402252 279.227875,276.334839 
	C280.186462,274.804688 281.359497,273.408875 283.121460,272.013031 
	C290.488129,269.259796 294.683899,260.607300 291.491028,253.960022 
	C290.701569,252.316422 288.349426,251.423416 286.340088,250.160370 
	C286.340088,250.160370 285.998230,250.002945 285.903290,249.275421 
	C283.988373,245.147934 281.322845,242.331848 276.626282,245.359833 
	C275.101624,246.342804 274.202911,248.424454 273.243469,250.130447 
	C271.070618,253.994095 269.038177,257.936676 266.277039,262.202026 
	C264.688141,265.130463 263.318848,268.207214 261.462769,270.955170 
	C258.032684,276.033478 254.317368,280.919098 249.993454,285.919800 
	C246.366669,289.162598 242.658325,292.320679 239.156219,295.692963 
	C237.886703,296.915405 237.110367,298.650055 235.970917,300.504364 
	C235.970917,300.504364 235.842377,300.861359 235.112701,300.760284 
	C234.383270,301.477142 233.653824,302.193970 232.924210,302.999023 
	C232.924210,302.999023 233.010468,303.017426 232.216370,302.961121 
	C230.200729,303.367096 228.185074,303.773102 225.478592,304.067291 
	C223.168625,302.893524 222.072983,303.597382 222.177109,306.181458 
M264.401703,102.512100 
	C264.497009,96.945038 260.584503,91.275024 255.466568,89.883072 
	C255.403870,89.279793 255.426056,88.172180 255.266342,88.145294 
	C245.411957,86.486488 242.061829,90.791115 239.991638,99.767929 
	C239.957062,100.499527 239.922470,101.231125 239.093170,102.115364 
	C238.093719,103.262421 236.268280,104.381393 236.228180,105.561058 
	C235.957535,113.523315 235.941162,121.502190 236.182861,129.465347 
	C236.219376,130.667847 238.029114,131.816513 239.146973,133.415649 
	C239.146973,133.415649 239.110916,133.858688 238.900604,134.567734 
	C239.442841,136.151382 240.478790,137.749191 240.433838,139.315994 
	C240.304031,143.842163 242.403976,146.606766 247.074112,147.865097 
	C249.491028,151.412064 252.899216,150.499069 255.481506,148.842453 
	C260.211212,145.808212 262.327972,140.572372 264.587738,135.645020 
	C264.881287,135.004959 264.143402,133.891907 263.998627,132.250031 
	C263.978851,131.497345 263.959045,130.744659 264.130310,129.072113 
	C264.041382,121.052826 263.952484,113.033539 263.970490,104.348114 
	C263.950836,103.898994 263.931183,103.449883 264.401703,102.512100 
M188.860474,106.530594 
	C188.250839,106.021912 187.641190,105.513229 186.963608,104.351616 
	C185.995804,103.209122 185.028000,102.066628 183.999985,100.299934 
	C183.965179,99.884834 183.930374,99.469727 184.047333,98.245476 
	C183.555374,96.707451 183.119705,95.148643 182.560806,93.635361 
	C180.948029,89.268623 173.613968,86.094276 170.203430,88.804298 
	C166.930191,91.405235 163.273895,94.205116 162.418060,99.218430 
	C161.940414,101.145081 161.462769,103.071732 160.865509,105.929688 
	C160.872986,113.957146 160.880463,121.984596 160.398560,130.582382 
	C159.207291,137.389954 164.314743,141.327148 167.383041,146.027740 
	C167.946411,145.667999 168.485519,145.323730 169.943558,145.025589 
	C173.505417,145.025589 177.067261,145.025589 180.161499,145.025589 
	C180.930206,142.689560 181.514175,140.914932 182.754013,138.897949 
	C183.747559,136.882950 184.741119,134.867966 186.531311,132.909058 
	C187.267395,131.862167 188.003479,130.815262 188.800064,128.863693 
	C188.787323,121.647560 188.774582,114.431435 188.860474,106.530594 
z"/>
<path fill="#060606" opacity="1.000000" stroke="none" 
	d="
M282.434723,271.951813 
	C281.359497,273.408875 280.186462,274.804688 279.227875,276.334839 
	C276.679840,280.402252 274.681915,284.911194 271.633667,288.547516 
	C265.862305,295.432281 262.098755,303.931702 254.176956,309.158661 
	C249.984848,311.924713 246.803787,316.180603 242.910690,319.460510 
	C241.005646,321.065460 238.516708,321.977417 235.701782,323.542542 
	C234.222000,324.204987 233.288132,324.440216 232.449677,324.864166 
	C220.724136,330.792114 208.761093,332.404266 196.357376,327.008087 
	C193.928024,325.951233 191.425888,325.061646 188.957336,324.094879 
	C182.684326,321.112457 176.930878,317.557465 172.979172,311.521698 
	C171.784073,309.696320 169.614853,308.508698 167.475693,306.586365 
	C164.074722,302.717010 161.089890,299.290314 158.105057,295.863586 
	C157.441742,294.798462 156.778427,293.733307 156.069153,291.998505 
	C155.214966,289.983856 154.446838,288.612732 153.591644,287.298309 
	C149.403641,280.861450 145.192444,274.439667 140.991241,267.543732 
	C141.040268,261.196289 141.087509,255.317703 141.134735,249.439117 
	C141.568390,249.400620 142.002045,249.362106 142.950073,249.623062 
	C145.094376,250.581039 146.724319,251.239548 148.354263,251.898041 
	C150.509415,254.345459 152.664566,256.792847 154.913513,259.964691 
	C157.095108,264.719360 158.939072,268.904846 161.367325,272.718323 
	C162.702713,274.815491 165.021454,276.286530 166.896851,278.039856 
	C167.515839,278.480225 168.542206,278.812744 168.691681,279.377411 
	C170.466125,286.080566 177.639862,288.689056 180.612183,295.278381 
	C183.764053,297.817993 186.361008,300.143677 189.348953,301.735352 
	C194.423141,304.438416 199.743698,306.678925 205.038452,309.493896 
	C207.269470,311.844604 217.194519,312.994446 219.354050,311.364441 
	C219.863800,310.979675 219.819000,309.860260 220.323334,309.001892 
	C221.022247,308.913879 221.427155,308.902771 222.246216,308.948914 
	C226.766785,308.144318 231.065262,307.614441 233.010468,303.017426 
	C233.010468,303.017426 232.924210,302.999023 233.291000,302.988892 
	C234.385986,302.272980 235.114182,301.567169 235.842377,300.861359 
	C235.842377,300.861359 235.970917,300.504364 236.402100,300.300720 
	C242.413727,296.289215 249.327515,293.784302 250.720856,285.884979 
	C254.317368,280.919098 258.032684,276.033478 261.462769,270.955170 
	C263.318848,268.207214 264.688141,265.130463 266.996979,262.094543 
	C268.803192,261.200836 270.139496,260.608826 270.929108,259.592194 
	C273.368561,256.451385 275.599548,253.148666 278.300110,250.000000 
	C285.182098,251.192978 286.200653,252.459885 286.284515,258.981201 
	C286.306091,260.659943 286.814636,262.332428 286.981201,264.369141 
	C285.386871,267.137604 283.910797,269.544708 282.434723,271.951813 
z"/>
<path fill="#050505" opacity="1.000000" stroke="none" 
	d="
M182.098145,139.140305 
	C181.514175,140.914932 180.930206,142.689560 180.161499,145.025589 
	C177.067261,145.025589 173.505417,145.025589 169.337921,144.655334 
	C167.760941,142.235992 166.789597,140.186905 165.885818,137.744934 
	C165.123322,135.795792 164.293243,134.239548 163.392914,132.350891 
	C163.229691,131.345825 163.136719,130.673157 163.278870,129.723450 
	C162.591522,118.392319 162.677322,107.337532 166.502304,96.833687 
	C167.405762,94.352692 170.938126,91.859932 173.636719,91.346436 
	C175.400757,91.010780 177.853790,94.215309 179.974518,95.864594 
	C181.304260,96.898720 182.590042,97.989349 183.895554,99.054626 
	C183.930374,99.469727 183.965179,99.884834 183.819122,100.985680 
	C183.444702,103.271889 183.129883,104.868362 183.077209,106.473450 
	C182.719925,117.361389 182.417984,128.251144 182.098145,139.140305 
z"/>
<path fill="#050505" opacity="1.000000" stroke="none" 
	d="
M239.887894,101.962723 
	C239.922470,101.231125 239.957062,100.499527 240.341431,99.217773 
	C241.873260,97.983337 243.541840,97.591560 244.157837,96.566956 
	C247.954041,90.252617 249.363113,89.631477 255.894836,92.335922 
	C255.887436,92.554184 256.117523,92.925545 256.109802,93.284317 
	C257.326996,95.789108 258.551880,97.935127 259.810638,100.384338 
	C260.145111,101.163162 260.445709,101.638794 260.797119,102.574265 
	C261.136230,112.034325 261.424500,121.034554 261.524536,130.374771 
	C261.275452,131.486099 261.214661,132.257446 260.892548,133.141891 
	C260.457245,134.188751 260.283264,135.122482 260.056152,136.420074 
	C259.022980,138.620361 258.042938,140.456802 257.008179,141.998703 
	C256.901642,141.550705 256.873199,141.383026 256.791290,141.247772 
	C256.711700,141.116394 256.539764,140.900879 256.472168,140.922424 
	C253.320007,141.927277 250.174805,142.954025 247.015640,143.990082 
	C247.002472,144.001907 247.019485,143.972717 247.024109,143.617050 
	C246.081406,142.481720 245.134109,141.702042 243.989792,140.659027 
	C243.066483,138.402298 242.340164,136.408920 241.765411,133.941711 
	C241.931244,124.436996 242.008041,115.405266 241.882614,106.376343 
	C241.866516,105.216637 240.799896,104.071526 240.147720,102.676674 
	C240.012970,102.276711 239.950439,102.119720 239.887894,101.962723 
z"/>
<path fill="#B3B3B3" opacity="1.000000" stroke="none" 
	d="
M189.062363,324.451233 
	C191.425888,325.061646 193.928024,325.951233 196.357376,327.008087 
	C208.761093,332.404266 220.724136,330.792114 232.449677,324.864166 
	C233.288132,324.440216 234.222000,324.204987 235.498413,323.862030 
	C234.859314,325.481293 234.187531,327.584320 232.748825,328.683289 
	C224.517532,334.970612 214.766693,334.742065 205.333481,333.567810 
	C200.207245,332.929657 195.346634,329.928741 190.470352,327.759430 
	C189.742371,327.435577 189.587433,325.823608 189.062363,324.451233 
z"/>
<path fill="#5B5B5B" opacity="1.000000" stroke="none" 
	d="
M183.971436,98.650055 
	C182.590042,97.989349 181.304260,96.898720 179.974518,95.864594 
	C177.853790,94.215309 175.400757,91.010780 173.636719,91.346436 
	C170.938126,91.859932 167.405762,94.352692 166.502304,96.833687 
	C162.677322,107.337532 162.591522,118.392319 162.919861,129.745758 
	C161.846481,130.034119 161.367218,130.023087 160.887939,130.012054 
	C160.880463,121.984596 160.872986,113.957146 161.305267,105.414322 
	C162.206924,102.982315 162.668839,101.065681 163.130753,99.149048 
	C163.273895,94.205116 166.930191,91.405235 170.203430,88.804298 
	C173.613968,86.094276 180.948029,89.268623 182.560806,93.635361 
	C183.119705,95.148643 183.555374,96.707451 183.971436,98.650055 
z"/>
<path fill="#AAAAAA" opacity="1.000000" stroke="none" 
	d="
M204.960709,309.113831 
	C199.743698,306.678925 194.423141,304.438416 189.348953,301.735352 
	C186.361008,300.143677 183.764053,297.817993 180.936676,295.457275 
	C182.987503,295.693604 185.226013,296.016754 187.173767,296.948029 
	C193.449722,299.948700 199.403107,303.788147 205.913467,306.069855 
	C209.532532,307.338257 214.011627,306.159241 218.102829,306.069794 
	C219.226578,306.045197 220.349258,305.972137 221.825119,306.401550 
	C222.062561,307.551727 221.947311,308.221710 221.832062,308.891663 
	C221.427155,308.902771 221.022247,308.913879 219.856049,308.965729 
	C214.383392,309.042267 209.672058,309.078033 204.960709,309.113831 
z"/>
<path fill="#494949" opacity="1.000000" stroke="none" 
	d="
M182.426086,139.019135 
	C182.417984,128.251144 182.719925,117.361389 183.077209,106.473450 
	C183.129883,104.868362 183.444702,103.271889 183.849213,101.297775 
	C185.028000,102.066628 185.995804,103.209122 186.687805,104.745605 
	C186.321075,105.740486 186.230164,106.341377 186.067902,107.409676 
	C186.026978,115.264236 186.057388,122.651382 186.010529,130.385193 
	C185.867065,131.438904 185.800873,132.145935 185.734680,132.852982 
	C184.741119,134.867966 183.747559,136.882950 182.426086,139.019135 
z"/>
<path fill="#C2C2C2" opacity="1.000000" stroke="none" 
	d="
M239.490540,102.039047 
	C239.950439,102.119720 240.012970,102.276711 240.095673,103.107887 
	C239.713547,105.820663 238.993271,107.854927 238.965530,109.898598 
	C238.861053,117.594109 238.982071,125.292671 239.018616,132.990097 
	C238.029114,131.816513 236.219376,130.667847 236.182861,129.465347 
	C235.941162,121.502190 235.957535,113.523315 236.228180,105.561058 
	C236.268280,104.381393 238.093719,103.262421 239.490540,102.039047 
z"/>
<path fill="#AAAAAA" opacity="1.000000" stroke="none" 
	d="
M140.989441,268.012573 
	C145.192444,274.439667 149.403641,280.861450 153.591644,287.298309 
	C154.446838,288.612732 155.214966,289.983856 155.944702,291.697571 
	C154.226105,292.194427 153.067780,293.060150 151.619186,290.481995 
	C147.556366,283.251068 142.549103,276.551849 137.983658,269.597382 
	C137.854431,269.400543 138.506912,268.690491 139.337677,268.027985 
	C140.250122,267.894989 140.619781,267.953796 140.989441,268.012573 
z"/>
<path fill="#3C3C3C" opacity="1.000000" stroke="none" 
	d="
M239.082794,133.202881 
	C238.982071,125.292671 238.861053,117.594109 238.965530,109.898598 
	C238.993271,107.854927 239.713547,105.820663 240.167877,103.350868 
	C240.799896,104.071526 241.866516,105.216637 241.882614,106.376343 
	C242.008041,115.405266 241.931244,124.436996 241.441452,133.943954 
	C240.347610,134.232925 239.729263,134.045807 239.110916,133.858688 
	C239.110916,133.858688 239.146973,133.415649 239.082794,133.202881 
z"/>
<path fill="#C2C2C2" opacity="1.000000" stroke="none" 
	d="
M277.911499,249.908829 
	C275.599548,253.148666 273.368561,256.451385 270.929108,259.592194 
	C270.139496,260.608826 268.803192,261.200836 267.332764,261.917114 
	C269.038177,257.936676 271.070618,253.994095 273.243469,250.130447 
	C274.202911,248.424454 275.101624,246.342804 276.626282,245.359833 
	C281.322845,242.331848 283.988373,245.147934 285.583008,249.705322 
	C284.023438,249.411758 282.826263,248.599777 281.535065,247.985397 
	C279.551178,247.041397 277.900604,246.976868 277.911499,249.908829 
z"/>
<path fill="#DEDEDE" opacity="1.000000" stroke="none" 
	d="
M282.778076,271.982422 
	C283.910797,269.544708 285.386871,267.137604 287.336426,264.229034 
	C290.715240,258.949280 287.338531,254.678589 286.715637,250.185364 
	C288.349426,251.423416 290.701569,252.316422 291.491028,253.960022 
	C294.683899,260.607300 290.488129,269.259796 282.778076,271.982422 
z"/>
<path fill="#C2C2C2" opacity="1.000000" stroke="none" 
	d="
M257.062866,142.293228 
	C258.042938,140.456802 259.022980,138.620361 260.391174,136.353134 
	C261.237061,134.961655 261.694763,134.000961 262.440491,133.017822 
	C263.113434,132.996231 263.498352,132.997086 263.883301,132.997925 
	C264.143402,133.891907 264.881287,135.004959 264.587738,135.645020 
	C262.327972,140.572372 260.211212,145.808212 255.481506,148.842453 
	C252.899216,150.499069 249.491028,151.412064 247.123535,147.342590 
	C247.172974,146.820099 247.439545,146.542862 247.826050,146.565796 
	C252.068176,147.022629 255.567719,146.722824 257.062866,142.293228 
z"/>
<path fill="#878787" opacity="1.000000" stroke="none" 
	d="
M255.902222,92.117661 
	C249.363113,89.631477 247.954041,90.252617 244.157837,96.566956 
	C243.541840,97.591560 241.873260,97.983337 240.364777,98.851410 
	C242.061829,90.791115 245.411957,86.486488 255.266342,88.145294 
	C255.426056,88.172180 255.403870,89.279793 255.740845,90.348930 
	C255.977478,91.249077 255.939850,91.683372 255.902222,92.117661 
z"/>
<path fill="#7B7B7B" opacity="1.000000" stroke="none" 
	d="
M261.712799,130.034775 
	C261.424500,121.034554 261.136230,112.034325 261.102417,102.536865 
	C261.561554,102.029381 261.766174,102.019142 262.042236,102.190819 
	C262.113708,102.372726 262.135559,102.763000 262.112244,103.099701 
	C262.680481,103.962357 263.272034,104.488304 263.863556,105.014252 
	C263.952484,113.033539 264.041382,121.052826 263.755005,129.537186 
	C262.824097,130.013092 262.268433,130.023926 261.712799,130.034775 
z"/>
<path fill="#494949" opacity="1.000000" stroke="none" 
	d="
M166.976837,277.633423 
	C165.021454,276.286530 162.702713,274.815491 161.367325,272.718323 
	C158.939072,268.904846 157.095108,264.719360 155.049072,260.279541 
	C159.904419,265.086945 164.917099,270.166626 166.976837,277.633423 
z"/>
<path fill="#B3B3B3" opacity="1.000000" stroke="none" 
	d="
M186.087799,130.038544 
	C186.057388,122.651382 186.026978,115.264236 186.399628,107.420799 
	C187.455734,107.048103 188.108795,107.131706 188.761841,107.215302 
	C188.774582,114.431435 188.787323,121.647560 188.444839,129.377136 
	C187.422333,129.939911 186.755066,129.989227 186.087799,130.038544 
z"/>
<path fill="#B3B3B3" opacity="1.000000" stroke="none" 
	d="
M250.357147,285.902405 
	C249.327515,293.784302 242.413727,296.289215 236.471146,300.124023 
	C237.110367,298.650055 237.886703,296.915405 239.156219,295.692963 
	C242.658325,292.320679 246.366669,289.162598 250.357147,285.902405 
z"/>
<path fill="#AAAAAA" opacity="1.000000" stroke="none" 
	d="
M160.643250,130.297211 
	C161.367218,130.023087 161.846481,130.034119 162.684753,130.022827 
	C163.136719,130.673157 163.229691,131.345825 163.270737,132.723267 
	C164.085312,134.997986 164.951782,136.567902 165.818253,138.137817 
	C166.789597,140.186905 167.760941,142.235992 168.878448,144.632263 
	C168.485519,145.323730 167.946411,145.667999 167.383041,146.027740 
	C164.314743,141.327148 159.207291,137.389954 160.643250,130.297211 
z"/>
<path fill="#494949" opacity="1.000000" stroke="none" 
	d="
M140.991241,267.543732 
	C140.619781,267.953796 140.250122,267.894989 139.603638,267.899414 
	C136.941422,263.408813 137.552872,252.433151 140.754333,249.302704 
	C141.087509,255.317703 141.040268,261.196289 140.991241,267.543732 
z"/>
<path fill="#5B5B5B" opacity="1.000000" stroke="none" 
	d="
M286.527863,250.172882 
	C287.338531,254.678589 290.715240,258.949280 287.454651,263.867676 
	C286.814636,262.332428 286.306091,260.659943 286.284515,258.981201 
	C286.200653,252.459885 285.182098,251.192978 278.300110,250.000000 
	C277.900604,246.976868 279.551178,247.041397 281.535065,247.985397 
	C282.826263,248.599777 284.023438,249.411758 285.630493,250.069077 
	C285.998230,250.002945 286.340088,250.160370 286.527863,250.172882 
z"/>
<path fill="#B3B3B3" opacity="1.000000" stroke="none" 
	d="
M158.096115,296.275330 
	C161.089890,299.290314 164.074722,302.717010 167.107224,306.515472 
	C162.580475,306.162354 158.542297,301.619873 158.096115,296.275330 
z"/>
<path fill="#C2C2C2" opacity="1.000000" stroke="none" 
	d="
M239.005768,134.213211 
	C239.729263,134.045807 240.347610,134.232925 241.289917,134.417786 
	C242.340164,136.408920 243.066483,138.402298 244.020264,141.017136 
	C245.171646,142.416641 246.095566,143.194672 247.019485,143.972717 
	C247.019485,143.972717 247.002472,144.001907 247.011627,144.317902 
	C247.160385,145.270233 247.299957,145.906540 247.439545,146.542862 
	C247.439545,146.542862 247.172974,146.820099 247.039520,146.959137 
	C242.403976,146.606766 240.304031,143.842163 240.433838,139.315994 
	C240.478790,137.749191 239.442841,136.151382 239.005768,134.213211 
z"/>
<path fill="#C2C2C2" opacity="1.000000" stroke="none" 
	d="
M262.135559,102.763000 
	C262.135559,102.763000 262.113708,102.372726 262.026550,101.856567 
	C261.628998,100.556931 261.318604,99.773438 260.990570,98.616562 
	C259.354462,96.470627 257.735992,94.698082 256.117523,92.925545 
	C256.117523,92.925545 255.887436,92.554184 255.894836,92.335922 
	C255.939850,91.683372 255.977478,91.249077 255.946014,90.486420 
	C260.584503,91.275024 264.497009,96.945038 263.856323,102.748665 
	C262.919128,102.911148 262.527344,102.837074 262.135559,102.763000 
z"/>
<path fill="#2F2F2F" opacity="1.000000" stroke="none" 
	d="
M222.246201,308.948914 
	C221.947311,308.221710 222.062561,307.551727 222.172363,306.541626 
	C222.166916,306.201508 222.177109,306.181458 222.566895,306.262878 
	C224.027588,305.622559 225.098511,304.900818 226.169434,304.179108 
	C228.185074,303.773102 230.200729,303.367096 232.613419,302.989258 
	C231.065262,307.614441 226.766785,308.144318 222.246201,308.948914 
z"/>
<path fill="#494949" opacity="1.000000" stroke="none" 
	d="
M148.386566,251.606323 
	C146.724319,251.239548 145.094376,250.581039 143.274094,249.671753 
	C145.484451,248.298874 148.533905,245.348907 148.386566,251.606323 
z"/>
<path fill="#AAAAAA" opacity="1.000000" stroke="none" 
	d="
M162.774414,99.183739 
	C162.668839,101.065681 162.206924,102.982315 161.365082,104.948669 
	C161.462769,103.071732 161.940414,101.145081 162.774414,99.183739 
z"/>
<path fill="#AAAAAA" opacity="1.000000" stroke="none" 
	d="
M225.824005,304.123199 
	C225.098511,304.900818 224.027588,305.622559 222.577393,306.266571 
	C222.072983,303.597382 223.168625,302.893524 225.824005,304.123199 
z"/>
<path fill="#878787" opacity="1.000000" stroke="none" 
	d="
M261.524536,130.374771 
	C262.268433,130.023926 262.824097,130.013092 263.659485,129.997116 
	C263.959045,130.744659 263.978851,131.497345 263.940979,132.623978 
	C263.498352,132.997086 263.113434,132.996231 262.190643,133.004745 
	C261.652802,133.014114 261.153870,133.028778 261.153870,133.028778 
	C261.214661,132.257446 261.275452,131.486099 261.524536,130.374771 
z"/>
<path fill="#DEDEDE" opacity="1.000000" stroke="none" 
	d="
M186.010529,130.385193 
	C186.755066,129.989227 187.422333,129.939911 188.414581,129.829468 
	C188.003479,130.815262 187.267395,131.862167 186.132996,132.881012 
	C185.800873,132.145935 185.867065,131.438904 186.010529,130.385193 
z"/>
<path fill="#7B7B7B" opacity="1.000000" stroke="none" 
	d="
M235.477539,300.810822 
	C235.114182,301.567169 234.385986,302.272980 233.291077,302.944824 
	C233.653824,302.193970 234.383270,301.477142 235.477539,300.810822 
z"/>
<path fill="#DEDEDE" opacity="1.000000" stroke="none" 
	d="
M188.811157,106.872955 
	C188.108795,107.131706 187.455734,107.048103 186.470963,106.953384 
	C186.230164,106.341377 186.321075,105.740486 186.721771,105.072075 
	C187.641190,105.513229 188.250839,106.021912 188.811157,106.872955 
z"/>
<path fill="#878787" opacity="1.000000" stroke="none" 
	d="
M262.112244,103.099701 
	C262.527344,102.837074 262.919128,102.911148 263.611237,102.992996 
	C263.931183,103.449883 263.950836,103.898994 263.917023,104.681183 
	C263.272034,104.488304 262.680481,103.962357 262.112244,103.099701 
z"/>
<path fill="#2F2F2F" opacity="1.000000" stroke="none" 
	d="
M205.038452,309.493896 
	C209.672058,309.078033 214.383392,309.042267 219.562027,309.042633 
	C219.819000,309.860260 219.863800,310.979675 219.354050,311.364441 
	C217.194519,312.994446 207.269470,311.844604 205.038452,309.493896 
z"/>
<path fill="#5B5B5B" opacity="1.000000" stroke="none" 
	d="
M165.885818,137.744934 
	C164.951782,136.567902 164.085312,134.997986 163.341003,133.055695 
	C164.293243,134.239548 165.123322,135.795792 165.885818,137.744934 
z"/>
<path fill="#3C3C3C" opacity="1.000000" stroke="none" 
	d="
M247.826035,146.565796 
	C247.299957,145.906540 247.160385,145.270233 247.024811,144.306091 
	C250.174805,142.954025 253.320007,141.927277 256.472168,140.922424 
	C256.539764,140.900879 256.711700,141.116394 256.791290,141.247772 
	C256.873199,141.383026 256.901642,141.550705 257.008179,141.998703 
	C255.567719,146.722824 252.068176,147.022629 247.826035,146.565796 
z"/>
<path fill="#7B7B7B" opacity="1.000000" stroke="none" 
	d="
M256.109802,93.284317 
	C257.735992,94.698082 259.354462,96.470627 260.846680,98.860626 
	C260.405884,99.679115 260.091339,99.880135 259.776764,100.081154 
	C258.551880,97.935127 257.326996,95.789108 256.109802,93.284317 
z"/>
<path fill="#3C3C3C" opacity="1.000000" stroke="none" 
	d="
M247.024109,143.617050 
	C246.095566,143.194672 245.171646,142.416641 244.217255,141.280487 
	C245.134109,141.702042 246.081406,142.481720 247.024109,143.617050 
z"/>
<path fill="#7B7B7B" opacity="1.000000" stroke="none" 
	d="
M260.892548,133.141891 
	C261.153870,133.028778 261.652802,133.014114 261.902649,133.027191 
	C261.694763,134.000961 261.237061,134.961655 260.444305,135.989288 
	C260.283264,135.122482 260.457245,134.188751 260.892548,133.141891 
z"/>
<path fill="#878787" opacity="1.000000" stroke="none" 
	d="
M259.810638,100.384338 
	C260.091339,99.880135 260.405884,99.679115 260.864319,99.234024 
	C261.318604,99.773438 261.628998,100.556931 261.955078,101.674667 
	C261.766174,102.019142 261.561554,102.029381 261.051575,102.077026 
	C260.445709,101.638794 260.145111,101.163162 259.810638,100.384338 
z"/>
</svg>