<?xml version="1.0" encoding="UTF-8"?>
<svg id="Layer_1" data-name="Layer 1" xmlns="http://www.w3.org/2000/svg" viewBox="0 0 2823.88 1163.17">
  <defs>
    <style>
      .cls-1 {
        fill: #90a6eb;
        stroke-width: 0px;
      }
    </style>
  </defs>
  <path class="cls-1" d="m1393.84,757.91c.23-20.99,1.94-43.02,5.05-64.96,5.58-39.37,13.65-78.21,24.72-116.41,7.8-26.89,17.16-53.23,28.43-78.87,9.22-20.97,20.58-40.65,35.18-58.39,14.5-17.61,31.44-32.39,51.19-43.84,13.97-8.1,26.5-18,37.95-29.34,10.61-10.51,20.3-21.83,29.67-33.43,7.37-9.13,15.05-18.01,21.64-27.78,4.19-6.2,9.61-11.38,15.66-15.83,9.38-6.9,19.83-10.68,31.55-10.46,11.75.22,23.44,1.3,35.08,2.87,5.25.71,9.97,2.65,14.39,5.53,17.81,11.59,30.47,27.33,38.11,47.11,1.87,4.84,3.58,9.74,5.26,14.65,3.14,9.19,6.85,18.13,11.15,26.85,9.44,19.13,15.53,39.42,20.33,60.12,3.42,14.73,6.27,29.57,8.74,44.49.89,5.34,1.33,10.75,1.91,16.13,2.71,25.36,5.26,50.74,8.13,76.08,2.45,21.61,3.21,43.22,1.45,64.9-1.37,16.89-3.82,33.64-7.07,50.26-4.08,20.82-9.3,41.37-14.84,61.84-5.03,18.59-12.57,36.2-21.45,53.25-7.2,13.82-15,27.3-23.16,40.56-9.03,14.68-19.85,27.99-31.97,40.23-16.11,16.27-33.77,30.69-52.96,43.15-28.44,18.47-59.58,29.79-93.2,34.41-20.69,2.85-41.41,3.19-62.19,1.43-4.72-.4-9.43-.96-14.16-1.32-9.31-.71-17.42-4.4-24.87-9.78-17.97-12.98-33-28.72-44.92-47.43-13.01-20.41-21.41-42.69-26.67-66.2-5.79-25.89-8.06-52.16-8.13-79.82Zm257.77-176.62c.11-2.48.31-4.96.32-7.44.03-6.73-1.69-12.97-5.74-18.4-4.18-5.6-9.71-8.62-16.88-8.2-5.7.33-10.31,3.03-14.47,6.66-9.93,8.66-18.59,18.42-25.45,29.7-7.77,12.79-13.54,26.46-17.99,40.72-5.79,18.57-9.01,37.69-12.02,56.85-.35,2.24-.38,4.49.03,6.74.57,3.1.99,6.24,1.63,9.33.92,4.41,1.67,8.85,3.34,13.08,1.59,4.04,3.61,7.79,6.71,10.85,5.43,5.37,11.84,7.19,19.24,5,3.96-1.17,7.34-3.41,10.45-6.07,8.3-7.11,15.34-15.28,20.77-24.78,5.38-9.41,9.93-19.21,13.75-29.36,10.28-27.3,14.69-55.71,16.29-84.67Z"/>
  <path class="cls-1" d="m1971.67,490.62c0,19.52,0,43.69,0,67.86,0,13.1.04,26.2.07,39.31.01,6.12.71,12.15,2.3,18.09.79,2.93,2.16,5.44,4.43,7.44,1.8,1.59,3.48,1.8,5.59.7,2.88-1.51,4.9-3.91,6.72-6.55,8.59-12.43,14.25-26.11,17.29-40.87,1.87-9.09,2.75-18.29,2.77-27.58.05-25.31-.78-50.59-2.33-75.84-.54-8.79-1.3-17.58-1.52-26.38-.32-12.97-2.69-25.56-6.21-37.99-2.03-7.16-4.06-14.32-5.28-21.69-3.34-20.18-1.01-39.59,7.72-58.14,4.64-9.87,10.64-18.88,17.75-27.13,5.57-6.47,12.35-11.04,20.64-13.56,12.77-3.88,25.73-6.87,38.9-8.92,22.39-3.48,37.87,9.44,44.59,23.57,3.12,6.57,5.09,13.5,6.44,20.61,6.19,32.59,12.5,65.15,18.5,97.78,3.83,20.87,7.45,41.78,9.56,62.91,1.87,18.67,2.56,37.41,2.19,56.17-.19,9.93-.5,19.86-1.31,29.78-.55,6.74-.35,13.54-.43,20.32-.55,45.17-1.05,90.35-1.66,135.52-.22,16.28-1.51,32.5-4.05,48.57-2.61,16.52-8.95,31.63-18.44,45.42-9.31,13.55-20.93,24.85-33.91,34.81-10.95,8.41-22.62,15.7-34.9,22.03-30.83,15.88-62.97,28.23-96.86,35.84-21.21,4.76-42.62,8.03-64.46,7.3-27.41-.92-53.62-7.08-78.62-18.37-3.32-1.5-6.39-3.38-9.2-5.67-9.45-7.69-16.71-17.06-21.6-28.25-2.68-6.14-3.71-12.43-2.63-19.15,2.61-16.3,6.44-32.32,11.61-47.98,6.01-18.2,12.46-36.27,18.74-54.38,6-17.3,10.99-34.87,13.76-52.99,1.36-8.92,2.44-17.89,3.38-26.87,1.61-15.52,1.64-31.12,2.1-46.69.57-19.21.25-38.4-.9-57.57-.97-16.23-2.58-32.41-4.67-48.54-2.06-15.89-4.04-31.8-6.06-47.7-1.5-11.87-2.79-23.77-4.57-35.6-2.61-17.28-8-33.8-14.72-49.87-5.22-12.49-10.89-24.79-16.51-37.11-3.09-6.79-6.78-13.26-11.03-19.41-8.81-12.78-8.96-26.1-2.22-39.74,3.37-6.82,8.23-12.53,14.61-16.61,19.67-12.59,40.24-23.27,63.27-28.45,9.54-2.14,19.16-3.05,28.93-2.34,12.91.94,23.97,5.96,33.26,14.93,5.41,5.23,9.76,11.26,13.45,17.77,13.02,22.96,22.02,47.42,27.22,73.29,2.94,14.66,4.48,29.47,5,44.38,1.16,32.96,2.09,65.92,3.26,103.54Z"/>
  <path class="cls-1" d="m248.25,453.86c-.25,23.47-.11,46.5,1,69.53.66,13.72,5.35,25.97,12.11,37.63.78,1.34,1.82,2.61,2.98,3.64,3.04,2.69,7.49,2.58,10.51-.09,1.56-1.37,2.61-3.1,3.4-5,3.52-8.42,5.86-17.08,5.07-26.33-1.27-14.85-2.52-29.69-3.84-44.54-1.02-11.47-2.19-22.92-3.23-34.39-1.15-12.59-2.29-25.18-3.33-37.78-1.26-15.18-.83-30.27,3.5-44.99,5.99-20.36,18.15-35.71,37.75-44.43,14.9-6.63,30.18-7.07,45.43-.93,12.43,5.01,20.97,13.86,25.38,26.53,4.3,12.37,7.8,24.99,10.64,37.76,5.99,26.86,11.83,53.76,17.51,80.69,8.61,40.84,17.03,81.72,25.5,122.59,8.88,42.86,17.92,85.69,25.7,128.77,4.1,22.67,7.35,45.46,7.86,68.56.3,13.61-.48,27.07-4.57,40.18-4.13,13.25-11.23,24.56-21.56,33.84-4.87,4.38-9.69,8.82-14.58,13.18-2.53,2.25-5.12,4.44-7.77,6.55-8.07,6.45-17.12,10.7-27.32,12.78-13.09,2.67-26.07,2.6-38.9-1.04-18.97-5.38-33.5-16.73-42.72-34.13-12.01-22.67-20.67-46.59-24.59-72.06-2.31-15.03-2.32-30.15-1.16-45.28.12-1.57.4-3.15.32-4.72-.77-15.79-1.59-31.58-2.43-47.36-.49-9.12-2.22-17.91-7.29-25.75-.61-.95-1.12-1.97-1.79-2.87-2.4-3.2-4.58-3.91-8.22-2.19-9.08,4.28-15.98,10.87-20.5,19.89-3.08,6.15-4.46,12.75-5.26,19.51-2.39,20.31-1.52,40.56.81,60.82,1.85,16.15,4.73,32.15,6.79,48.27,2,15.68,3.64,31.39,4.74,47.16,1.28,18.28,1.4,36.56,1.04,54.85-.2,9.94-.89,19.85-2.57,29.67-2.55,14.84-7.6,28.76-15.41,41.65-5.73,9.44-13.4,16.99-22.74,22.85-12.38,7.77-25.95,12.64-40.1,15.82-5.96,1.34-12.04,1.01-18.1-.68-9.79-2.73-19.52-5.57-28.8-9.78-9.12-4.14-17.46-9.44-24.48-16.68-3-3.09-5.81-6.35-8.03-10.03-8.21-13.61-14.87-27.88-17.87-43.61-1.27-6.67-1.81-13.39-1.38-20.21.76-11.94,1.31-23.9,1.97-35.85,1.19-21.65,2.39-43.29,3.6-64.94.5-9.02.98-18.04,1.58-27.05,1.72-25.68,3.49-51.36,5.26-77.04,1.05-15.32,2.09-30.64,3.22-45.95,1.1-14.86,2.32-29.71,3.45-44.57,1.07-14.19,2.08-28.38,3.13-42.56,1.23-16.66,2.48-33.33,3.68-49.99,1.07-14.86,2.07-29.74,3.14-44.6,1.18-16.44,2.43-32.88,3.63-49.32,1.12-15.31,2.27-30.63,3.31-45.95,1.49-21.98,11.62-39.03,29.47-51.63,6.32-4.46,13.29-7.66,20.89-9.3,8.83-1.91,17.7-3.49,26.74-4.18,10.35-.8,20.23,1,29.83,4.74,12.65,4.93,20.89,13.84,24.49,26.99,2.58,9.42,3.68,19.05,4,28.77.62,19.2.16,38.39-.57,57.58-.09,2.48-.22,4.96-.31,7.01Z"/>
  <path class="cls-1" d="m914.48,525.32c.71-1.74,1.33-2.91,1.69-4.16,12.98-45.24,30.83-88.59,50.89-131.09,7.03-14.9,14.03-29.81,21.06-44.71,1.15-2.45,2.22-4.95,3.53-7.31,5.3-9.51,13.65-13.82,24.26-12.62,15.03,1.69,30.01,3.87,44.66,7.83,4.8,1.3,9.48,2.9,13.9,5.26,8.86,4.75,16.28,12.92,14.65,28.02-.71,6.59-2.74,12.77-5.06,18.9-7.35,19.41-14.38,38.93-20.37,58.82-6.32,21-10.83,42.39-14.53,63.98-3.55,20.72-6.12,41.56-7.48,62.51-1.37,20.96-2.28,41.96-1.09,62.97.55,9.69.85,19.4,1.64,29.09,1.49,18.26,4.19,36.33,7.73,54.27,6.97,35.43,15.96,70.4,24.5,105.47,2.72,11.18,5.34,22.38,7.92,33.6,1.88,8.18,2.59,16.5,2.36,24.89-.06,2.25-.21,4.53-.69,6.72-2.72,12.52-11.75,20.96-24.72,22.71-13.89,1.88-27.86,2.93-41.91,2.58-1.58-.04-3.16-.11-4.74-.27-9.37-.96-16.03-5.72-19.71-14.4-3.62-8.54-8.12-16.62-12.71-24.66-11.3-19.81-21.12-40.4-31.49-60.69-8.53-16.68-16.96-33.4-25.37-50.14-2.43-4.84-4.78-9.72-6.92-14.69-2.98-6.93-8.51-11.56-14.11-16.14-1.2-.98-3.59.21-3.56,1.77.03,1.79.29,3.58.57,5.36,3.06,19.41,7.98,38.43,12.25,57.59,4.86,21.8,9.78,43.59,14.62,65.39,1.63,7.34,1.6,14.82,1.12,22.26-.63,9.75-5.92,15.24-15.69,16.41-5.6.67-11.25,1.1-16.89,1.36-12.64.59-25.29.95-37.94,1.53-6.82.31-13.56-.52-20.26-1.46-8.62-1.2-15.13-5.76-18.85-13.77-1.61-3.47-2.97-7.07-4.22-10.69-10.07-29.26-17.85-59.15-24.63-89.33-11.01-49.09-22.3-98.12-33.46-147.18-6.45-28.38-12.8-56.78-19.35-85.14-5.08-21.99-11.21-43.7-17.56-65.35-9.08-30.98-16.33-62.42-23.14-93.96-1.95-9.04-3.48-18.19-5.81-27.13-2.98-11.44-2.51-22.81-.63-34.26.37-2.23.83-4.44,1.22-6.66,1.57-9.01,6.88-15.01,15.08-18.61,7.06-3.1,14.49-5.09,22.08-6.32,14.24-2.31,28.4-1.83,42.25,2.41,17.56,5.38,31.22,15.85,40.81,31.61,18.77,30.87,36.76,62.18,54.58,93.6,16.26,28.68,31.03,58.14,46.08,87.45,1.02,1.99,2.12,3.93,3.45,6.37Z"/>
  <path class="cls-1" d="m1374.03,777.96c.14,23.26.46,46.52.36,69.78-.05,13.09-.47,26.19-2.24,39.2-1.81,13.22-4.54,26.26-8.55,38.96-4.06,12.84-11.94,23.25-22.33,31.68-18.45,14.96-39.31,24.57-62.99,27.8-30.29,4.13-59.41.16-87.34-12.32-8.9-3.98-17.2-8.96-25.02-14.78-8.26-6.15-15-13.59-20.39-22.39-12.54-20.49-22.64-42.11-30.95-64.61-6.26-16.94-11.41-34.24-15.97-51.7-6.16-23.57-12.22-47.17-18.36-70.74-6.5-24.92-11.36-50.16-14.94-75.66-3.39-24.2-5.31-48.49-4.86-72.92.36-19.2,2.01-38.31,4.71-57.34,2.85-20.11,6.55-40.1,8.73-60.31.43-4,1.7-7.93,2.8-11.84,2.31-8.25,4.81-16.45,7.16-24.7,2.97-10.44,6.64-20.58,11.82-30.17,3-5.55,5.47-11.39,8.24-17.07,3.86-7.92,8.2-15.56,12.89-23.03,15.61-24.86,37.65-41.66,64.83-52.07,21.01-8.05,42.81-11.01,65.19-9.3,14.04,1.07,27.61,4.39,40.59,9.95,22.57,9.67,38.99,25.76,49.64,47.76,8.47,17.49,15.62,35.52,21.08,54.19,3.55,12.14,6.35,24.45,7.81,37.05.97,8.4.24,16.74-.94,24.98-1.1,7.75-5.96,13.07-13.48,15.5-4.28,1.39-8.72,2.33-13.13,3.3-12.12,2.67-24.28,5.13-36.38,7.91-6.89,1.58-12.95-.13-18.7-3.72-4.86-3.04-8.71-7.14-12.09-11.72-4.07-5.52-6.77-11.69-8.84-18.18-1.37-4.3-2.73-8.6-4.35-12.8-1.22-3.16-2.88-6.15-5.25-8.63-2.68-2.8-5.55-3.02-8.31-.4-1.78,1.69-3.26,3.73-4.72,5.73-14.47,19.73-24.19,41.63-30.42,65.25-6.12,23.19-10.58,46.63-12.49,70.55-1.84,23.02-1.73,46.01-.04,69.03,2.74,37.51,9.99,74.21,19.6,110.49,4.65,17.54,13.07,33.07,25.64,46.31,4.94,5.2,10.82,8.12,17.88,8.48,7.69.4,14.77-1.58,20.9-6.41,3.45-2.72,5.81-6.22,7.32-10.37,5.28-14.47,9.15-29.25,11.01-44.57,2.02-16.74,1.16-33.3-1.56-49.91-1.67-10.18-7.43-16.18-16.83-19.06-4.73-1.45-9.66-2.25-14.51-3.29-9.13-1.97-17.79-5.08-25.43-10.6-7.87-5.69-12.68-13.22-14.38-22.88-1.2-6.86-.33-13.52,1.18-20.14,3.62-15.93,9.78-30.96,16.85-45.61,4.09-8.47,11.03-13.89,20.3-15.28,8.29-1.24,16.28-3.74,24.51-5.02,14.1-2.19,28.27-3.02,42.54-1.59,6.56.65,12.14,3.32,17.07,7.51,7.83,6.68,13.06,15.1,14.95,25.15,2.67,14.19,4.62,28.51,6.97,42.76,3.18,19.27,2.65,38.71,2.71,58.13.07,21.23.02,42.46.02,63.69.18,0,.36,0,.54,0Z"/>
  <path class="cls-1" d="m485.2,830.3c.57-9.24.94-18.5,1.76-27.72,1.18-13.14.08-26.2-1.06-39.24-3-34.26-10.14-67.82-17.64-101.31-4.69-20.92-9.6-41.78-13.54-62.86-1.49-7.98-2.98-15.95-4.77-23.87-2.8-12.41-2.75-25.1-2.17-37.77.33-7.22.7-14.44.77-21.66.22-21.57,3.45-42.73,8.73-63.59,8.1-31.94,17.99-63.36,28.22-94.67,4.65-14.21,13.8-24.63,27.07-31.53,10.12-5.25,20.92-8.47,32.06-10.41,9.56-1.67,19.21-2.88,28.87-3.87,11.71-1.2,23.01.84,33.59,6,22.77,11.11,39.94,27.6,49.26,51.64,4.18,10.77,7.09,21.89,10.14,32.97,18.75,68.08,37.46,136.16,55.17,204.52,12.05,46.52,23.44,93.2,34.62,139.94,7.56,31.6,15.07,63.2,22.37,94.86,4.86,21.11,9.39,42.29,13.85,63.48,1.29,6.16,2.21,12.41.89,18.81-1.31,6.37-4.62,11.18-9.96,14.7-4,2.63-8.38,4.52-12.99,5.64-11.84,2.86-23.69,5.78-35.64,8.09-16,3.09-28.82-2.42-38.45-15.53-6.59-8.97-11.7-18.75-16.1-28.93-10.22-23.68-17.85-48.22-24.17-73.19-7.42-29.33-13.38-58.97-18.59-88.76-1.9-10.89-3.13-21.9-4.55-32.87-.56-4.28-1.27-8.51-2.95-12.48-2.73-6.42-7.52-9.99-14.68-10.04-3.17-.02-6.33.14-9.42.93-2.54.66-3,1.25-2.68,3.77.34,2.69.76,5.37,1.26,8.03,1.56,8.24,1.77,16.62,2.25,24.95,1.14,19.84,2.14,39.7,2.67,59.56.37,13.77-.62,27.54-1.61,41.29-.24,3.38-.46,6.76-.63,10.14-.37,7.37-2.36,14.28-6.45,20.42-11.05,16.6-26.32,25.58-46.6,25.2-.45,0-.92.02-1.35-.08-8.37-1.9-16.96-2.31-25.41-3.66-11.76-1.87-21.57-7.82-30.03-15.98-9.25-8.92-10.38-10.42-11.75-24.79-.32-3.36-.05-6.77-.05-10.16-.11,0-.22,0-.33,0Zm102.61-318.95c-.32-6.3-.54-12.61-.99-18.9-.29-4.04-.73-8.08-1.46-12.06-1.02-5.6-3.1-10.81-6.78-15.27-1.95-2.37-3.63-2.51-5.52-.3-1.16,1.36-2.15,2.89-3.06,4.43-2.99,5.05-5.46,10.34-7.54,15.83-4.33,11.44-6.74,23.33-8.08,35.45-.59,5.37-1.19,10.77-1.23,16.16-.06,7.64,4.12,11.66,11.79,11.66,5.48,0,10.71-1.39,15.51-4.11,4.88-2.76,7.61-6.71,7.41-12.62-.23-6.75-.05-13.51-.06-20.27Z"/>
  <path class="cls-1" d="m2266.79,170.76c17.43-.74,34.8.09,52.05,2.6,29.55,4.29,57.54,13.26,83.55,28.09,5.71,3.26,11.11,6.94,15.95,11.4,10.84,9.98,16.61,22.3,17.08,37.07.32,10.16.83,20.31.99,30.47.22,13.81-.79,27.53-3.85,41.04-1.2,5.29-2.91,10.41-5.2,15.35-7.7,16.55-20.69,26.34-38.36,30.27-7.57,1.68-15.24,1.74-22.93,1.56-3.39-.08-6.78-.33-10.16-.29-5.19.05-6.41,1.28-5.99,6.61.33,4.26,1.03,8.52,1.83,12.72,3.15,16.63,6.52,33.21,9.59,49.85,3.52,19.08,6.81,38.21,10.18,57.32,3.92,22.22,7.81,44.45,11.74,66.67,3.7,20.88,7.35,41.78,11.21,62.64,3.74,20.19,7.67,40.34,11.6,60.49,3.07,15.74,5.92,31.5,7.02,47.52,1.25,18.35.23,36.56-3.66,54.56-1.39,6.44-3.79,12.51-7.45,18.04-5.71,8.63-13.65,14.47-23.37,17.6-21.94,7.06-44.19,12.78-67.19,15.37-14.21,1.6-28.43,1.77-42.64.81-14.68-.99-28.98-4.1-42.98-8.86-19.93-6.77-30.34-20.87-33.29-41.22-1.33-9.18-1.74-18.43-2.54-27.65-.23-2.66.04-5.34-1.23-7.94-.61-1.26-.27-3.09-.07-4.62,1.91-14.77,3.87-29.54,5.84-44.31,2.05-15.44,4.01-30.89,6.23-46.3,2.77-19.21,5.53-38.43,8.74-57.56,7.43-44.29,16.53-88.26,24.77-132.4,2.48-13.3,4.99-26.61,6.4-40.11.61-5.86.8-11.71.84-17.58.03-4.12-.92-8.08-2.14-11.95-1.49-4.73-3.34-9.35-4.85-14.07-1.06-3.32-3.27-5.14-6.45-6.35-3.06-1.16-6.14-1.42-9.31-1.31-6.83.24-13.53-.61-20.11-2.35-11.85-3.13-20.37-10.31-25.75-21.28-2.1-4.28-3.49-8.8-4.71-13.38-5.64-21.15-10.33-42.53-14.9-63.93-1.55-7.28-3.1-14.56-4.48-21.88-.71-3.76-.97-7.61-1.51-11.4-.93-6.48-1.94-12.94-2.88-19.42-2.06-14.15,3.16-28.87,17.72-37.35,6.13-3.57,12.73-5.77,19.74-6.68,11.64-1.51,23.3-2.9,34.95-4.39,14.36-1.83,28.81-2.48,43.23-3.46,2.25-.15,4.52-.02,6.78-.02Z"/>
  <path class="cls-1" d="m2480,292.87c.08-29.83,1.93-53.67,5.17-77.42,1.43-10.51,2.76-21.03,5.66-31.27,4.09-14.4,9.81-28.15,17.16-41.14,9.82-17.36,25.16-25.22,44.99-24.54,5.21.18,10.3,1.12,15.32,2.59,9.95,2.93,19.89,5.95,29.92,8.57,20.77,5.43,41.58,5.07,62.32-.25,14.87-3.81,29.83-7.22,44.94-9.86,5.55-.97,11.13-1.68,16.84-.98,7.94.98,14.67,4.22,20.42,9.68,3.97,3.77,7.11,8.16,9.77,12.92,6.03,10.79,9.44,22.41,10.99,34.61,1.58,12.38,1.13,24.79.66,37.21-1.52,40.06-10.48,78.57-23.58,116.32-22.62,65.21-45.97,130.16-69.22,195.14-4.03,11.26-8.58,22.31-13.65,33.16-7.1,15.19-15.89,29.37-25.67,42.95-4.5,6.25-9.48,12.09-15.41,17.06-8.93,7.48-19.12,12.09-30.86,12.24-17.01.23-30.45-7.1-40.83-20.36-2.8-3.57-4.87-7.58-6.87-11.64-6.39-13.03-10.74-26.79-14.49-40.74-6.92-25.7-13.68-51.46-18.37-77.69-3.02-16.88-6.03-33.76-8.79-50.68-3.67-22.49-7.13-45.02-10.64-67.54-3.83-24.58-6.01-49.3-5.81-68.34Z"/>
  <path class="cls-1" d="m2651.79,766.57c-.85,47.83-33.39,88.97-78.35,100.63-12.16,3.15-24.47,4.26-36.94,2.69-18.88-2.38-33.04-11.79-41.15-29.16-6.54-14.01-8.68-28.82-6.22-44.24,2.29-14.38,6.38-28.15,13.03-41.11,10.95-21.35,27.26-37.47,48.34-48.8,5.58-3,11.48-5.15,17.78-6.31,8.05-1.48,15.75-.45,23.24,2.52,4.22,1.68,8.5,2.89,13,3.59,5.12.8,10.11,2.26,14.92,4.31,15.9,6.78,25.68,18.68,29.86,35.31.71,2.84,1.23,5.75,1.55,8.66.49,4.49.72,9,.94,11.92Z"/>
</svg>