<svg version="1.1" id="Layer_1" xmlns="http://www.w3.org/2000/svg" xmlns:xlink="http://www.w3.org/1999/xlink" x="0px" y="0px"
	 width="100%" viewBox="0 0 512 512" enable-background="new 0 0 512 512" xml:space="preserve">
<path fill="currentColor" opacity="1.000000" stroke="none" 
	d="
M418.673767,297.292664 
	C405.794006,281.319183 393.070465,265.666351 379.351288,248.788651 
	C379.351288,252.662277 379.351746,255.083359 379.351227,257.504425 
	C379.348053,272.164032 379.258636,286.824524 379.401917,301.482697 
	C379.437561,305.131012 378.242126,306.524872 374.526978,306.423065 
	C367.036133,306.217743 359.534424,306.264984 352.040253,306.391754 
	C348.871399,306.445374 347.607239,305.322052 347.615540,302.054413 
	C347.690643,272.402252 347.701416,242.749634 347.599854,213.097610 
	C347.587433,209.481033 349.096710,208.575699 352.386688,208.612671 
	C363.379974,208.736267 374.375702,208.684097 385.370178,208.634354 
	C387.688293,208.623871 389.213562,209.322800 390.785278,211.301086 
	C401.908234,225.301086 413.313019,239.076904 424.470551,253.049881 
	C427.125580,256.374908 428.818420,254.251541 430.385010,252.406769 
	C435.422974,246.474197 440.300293,240.404465 445.203033,234.358002 
	C451.560699,226.517044 457.890656,218.653564 464.214722,210.785416 
	C465.466614,209.227829 467.054565,208.645370 469.020386,208.651108 
	C480.014923,208.683228 491.010498,208.738266 502.003845,208.617462 
	C505.226898,208.582031 506.378693,209.771378 506.370667,212.993103 
	C506.296783,242.645279 506.287537,272.297852 506.387543,301.949890 
	C506.399780,305.578033 504.856781,306.488983 501.576111,306.415466 
	C494.582916,306.258759 487.576721,306.167511 480.589996,306.428131 
	C476.470886,306.581757 475.557190,304.799042 475.591827,301.092834 
	C475.733429,285.934784 475.650665,270.774628 475.650574,255.615265 
	C475.650543,253.856842 475.650574,252.098404 475.650574,250.339981 
	C475.240753,250.205643 474.830902,250.071304 474.421082,249.936981 
	C469.401642,256.008820 464.322601,262.032532 459.375397,268.162659 
	C449.591248,280.286285 439.898956,292.483978 430.121552,304.613068 
	C428.328552,306.837280 426.257507,307.125824 424.319061,304.702026 
	C422.452759,302.368408 420.656830,299.978516 418.673767,297.292664 
z"/>
<path fill="currentColor" opacity="1.000000" stroke="none" 
	d="
M39.977638,253.947021 
	C28.999168,239.235611 18.253088,224.798859 7.649943,210.554153 
	C9.252460,208.118637 11.076618,208.699707 12.626354,208.689926 
	C22.282608,208.629059 31.941502,208.771423 41.594864,208.593582 
	C44.644455,208.537384 46.383858,209.762878 48.106018,212.118240 
	C58.071953,225.748459 68.188583,239.268524 78.269379,252.814590 
	C78.858673,253.606461 79.515793,254.398010 81.284462,254.407745 
	C87.657127,245.861923 94.243546,237.006775 100.855537,228.170761 
	C105.123734,222.466919 109.418060,216.782516 113.727631,211.109863 
	C114.614174,209.942917 115.402046,208.680771 117.226585,208.687317 
	C129.016190,208.729553 140.806030,208.708923 153.159973,208.708923 
	C152.123093,213.187958 149.297302,215.856018 147.154617,218.773102 
	C133.912872,236.800552 120.520264,254.717514 107.126137,272.632599 
	C99.291985,283.110992 91.301170,293.472717 83.512733,303.984619 
	C81.222336,307.075928 79.651062,306.828705 77.461281,303.886810 
	C65.105019,287.286499 52.638775,270.768036 39.977638,253.947021 
z"/>
<path fill="currentColor" opacity="1.000000" stroke="none" 
	d="
M265.953247,263.896271 
	C258.865021,273.314514 251.980957,282.445862 245.105453,291.583618 
	C242.016113,295.689453 238.957550,299.818481 235.855499,303.914642 
	C234.944138,305.118073 233.932144,306.278839 232.234863,306.280273 
	C220.293182,306.290314 208.351501,306.285614 196.268417,306.285614 
	C195.966949,302.413666 199.010330,301.352905 200.460953,299.356110 
	C213.981995,280.744202 227.587601,262.197052 241.738663,244.049438 
	C249.986832,233.471863 257.704865,222.481339 265.683075,211.692596 
	C268.542694,207.825592 269.936005,207.867355 272.778503,211.662811 
	C290.737701,235.643097 308.737518,259.593018 326.667023,283.595490 
	C331.899719,290.600586 336.946869,297.744263 342.028198,304.754242 
	C340.873840,306.938202 339.005188,306.332489 337.471405,306.341919 
	C327.643982,306.402344 317.815643,306.316620 307.988434,306.392395 
	C305.446533,306.411957 303.787506,305.627594 302.188080,303.458008 
	C292.452026,290.251099 282.513428,277.193542 272.637634,264.089752 
	C271.749268,262.911011 270.826874,261.757874 269.965363,260.650757 
	C267.746368,260.662872 266.985748,262.177399 265.953247,263.896271 
z"/>
<path fill="currentColor" opacity="1.000000" stroke="none" 
	d="
M158.658722,275.999939 
	C158.657455,255.168152 158.778793,234.835098 158.561478,214.505661 
	C158.512497,209.923325 159.901855,208.360077 164.495148,208.571686 
	C171.646149,208.901123 178.825211,208.759232 185.988556,208.620071 
	C189.201187,208.557648 190.372894,209.755890 190.364883,212.991608 
	C190.291458,242.655731 190.299988,272.320160 190.373871,301.984314 
	C190.381760,305.153290 189.318314,306.478729 186.040115,306.413269 
	C178.543655,306.263580 171.039322,306.238129 163.544113,306.414459 
	C159.900650,306.500092 158.516693,305.203583 158.602051,301.496613 
	C158.793823,293.168365 158.660065,284.832642 158.658722,275.999939 
z"/>
</svg>